<mxfile host="app.diagrams.net" agent="Mozilla/5.0 (X11; Linux x86_64; rv:143.0) Gecko/20100101 Firefox/143.0" version="28.2.5">
  <diagram id="R2lEEEUBdFMjLlhIrx00" name="Page-1">
    <mxGraphModel dx="1106" dy="645" grid="1" gridSize="10" guides="1" tooltips="1" connect="1" arrows="1" fold="1" page="1" pageScale="1" pageWidth="850" pageHeight="1100" math="0" shadow="0" extFonts="Permanent Marker^https://fonts.googleapis.com/css?family=Permanent+Marker">
      <root>
        <mxCell id="0" />
        <mxCell id="1" parent="0" />
        <mxCell id="qJWYRdmU4QDl0jJ4TU0a-52" value="users" style="shape=table;startSize=30;container=1;collapsible=1;childLayout=tableLayout;fixedRows=1;rowLines=0;fontStyle=1;align=center;resizeLast=1;" vertex="1" parent="1">
          <mxGeometry x="30" y="10" width="250" height="300" as="geometry" />
        </mxCell>
        <mxCell id="qJWYRdmU4QDl0jJ4TU0a-53" value="" style="shape=partialRectangle;collapsible=0;dropTarget=0;pointerEvents=0;fillColor=none;points=[[0,0.5],[1,0.5]];portConstraint=eastwest;top=0;left=0;right=0;bottom=1;" vertex="1" parent="qJWYRdmU4QDl0jJ4TU0a-52">
          <mxGeometry y="30" width="250" height="30" as="geometry" />
        </mxCell>
        <mxCell id="qJWYRdmU4QDl0jJ4TU0a-54" value="PK" style="shape=partialRectangle;overflow=hidden;connectable=0;fillColor=none;top=0;left=0;bottom=0;right=0;fontStyle=1;" vertex="1" parent="qJWYRdmU4QDl0jJ4TU0a-53">
          <mxGeometry width="30" height="30" as="geometry">
            <mxRectangle width="30" height="30" as="alternateBounds" />
          </mxGeometry>
        </mxCell>
        <mxCell id="qJWYRdmU4QDl0jJ4TU0a-55" value="_id:ObjectId()" style="shape=partialRectangle;overflow=hidden;connectable=0;fillColor=none;top=0;left=0;bottom=0;right=0;align=left;spacingLeft=6;fontStyle=5;" vertex="1" parent="qJWYRdmU4QDl0jJ4TU0a-53">
          <mxGeometry x="30" width="220" height="30" as="geometry">
            <mxRectangle width="220" height="30" as="alternateBounds" />
          </mxGeometry>
        </mxCell>
        <mxCell id="qJWYRdmU4QDl0jJ4TU0a-56" value="" style="shape=partialRectangle;collapsible=0;dropTarget=0;pointerEvents=0;fillColor=none;points=[[0,0.5],[1,0.5]];portConstraint=eastwest;top=0;left=0;right=0;bottom=0;" vertex="1" parent="qJWYRdmU4QDl0jJ4TU0a-52">
          <mxGeometry y="60" width="250" height="30" as="geometry" />
        </mxCell>
        <mxCell id="qJWYRdmU4QDl0jJ4TU0a-57" value="" style="shape=partialRectangle;overflow=hidden;connectable=0;fillColor=none;top=0;left=0;bottom=0;right=0;" vertex="1" parent="qJWYRdmU4QDl0jJ4TU0a-56">
          <mxGeometry width="30" height="30" as="geometry">
            <mxRectangle width="30" height="30" as="alternateBounds" />
          </mxGeometry>
        </mxCell>
        <mxCell id="qJWYRdmU4QDl0jJ4TU0a-58" value="email:string" style="shape=partialRectangle;overflow=hidden;connectable=0;fillColor=none;top=0;left=0;bottom=0;right=0;align=left;spacingLeft=6;" vertex="1" parent="qJWYRdmU4QDl0jJ4TU0a-56">
          <mxGeometry x="30" width="220" height="30" as="geometry">
            <mxRectangle width="220" height="30" as="alternateBounds" />
          </mxGeometry>
        </mxCell>
        <mxCell id="qJWYRdmU4QDl0jJ4TU0a-59" value="" style="shape=partialRectangle;collapsible=0;dropTarget=0;pointerEvents=0;fillColor=none;points=[[0,0.5],[1,0.5]];portConstraint=eastwest;top=0;left=0;right=0;bottom=0;" vertex="1" parent="qJWYRdmU4QDl0jJ4TU0a-52">
          <mxGeometry y="90" width="250" height="30" as="geometry" />
        </mxCell>
        <mxCell id="qJWYRdmU4QDl0jJ4TU0a-60" value="" style="shape=partialRectangle;overflow=hidden;connectable=0;fillColor=none;top=0;left=0;bottom=0;right=0;" vertex="1" parent="qJWYRdmU4QDl0jJ4TU0a-59">
          <mxGeometry width="30" height="30" as="geometry">
            <mxRectangle width="30" height="30" as="alternateBounds" />
          </mxGeometry>
        </mxCell>
        <mxCell id="qJWYRdmU4QDl0jJ4TU0a-61" value="password: hashedPassword string" style="shape=partialRectangle;overflow=hidden;connectable=0;fillColor=none;top=0;left=0;bottom=0;right=0;align=left;spacingLeft=6;" vertex="1" parent="qJWYRdmU4QDl0jJ4TU0a-59">
          <mxGeometry x="30" width="220" height="30" as="geometry">
            <mxRectangle width="220" height="30" as="alternateBounds" />
          </mxGeometry>
        </mxCell>
        <mxCell id="qJWYRdmU4QDl0jJ4TU0a-62" value="" style="shape=partialRectangle;collapsible=0;dropTarget=0;pointerEvents=0;fillColor=none;points=[[0,0.5],[1,0.5]];portConstraint=eastwest;top=0;left=0;right=0;bottom=0;" vertex="1" parent="qJWYRdmU4QDl0jJ4TU0a-52">
          <mxGeometry y="120" width="250" height="30" as="geometry" />
        </mxCell>
        <mxCell id="qJWYRdmU4QDl0jJ4TU0a-63" value="" style="shape=partialRectangle;overflow=hidden;connectable=0;fillColor=none;top=0;left=0;bottom=0;right=0;" vertex="1" parent="qJWYRdmU4QDl0jJ4TU0a-62">
          <mxGeometry width="30" height="30" as="geometry">
            <mxRectangle width="30" height="30" as="alternateBounds" />
          </mxGeometry>
        </mxCell>
        <mxCell id="qJWYRdmU4QDl0jJ4TU0a-64" value="fullName:String" style="shape=partialRectangle;overflow=hidden;connectable=0;fillColor=none;top=0;left=0;bottom=0;right=0;align=left;spacingLeft=6;" vertex="1" parent="qJWYRdmU4QDl0jJ4TU0a-62">
          <mxGeometry x="30" width="220" height="30" as="geometry">
            <mxRectangle width="220" height="30" as="alternateBounds" />
          </mxGeometry>
        </mxCell>
        <mxCell id="qJWYRdmU4QDl0jJ4TU0a-65" value="" style="shape=partialRectangle;collapsible=0;dropTarget=0;pointerEvents=0;fillColor=none;points=[[0,0.5],[1,0.5]];portConstraint=eastwest;top=0;left=0;right=0;bottom=0;" vertex="1" parent="qJWYRdmU4QDl0jJ4TU0a-52">
          <mxGeometry y="150" width="250" height="30" as="geometry" />
        </mxCell>
        <mxCell id="qJWYRdmU4QDl0jJ4TU0a-66" value="        " style="shape=partialRectangle;overflow=hidden;connectable=0;fillColor=none;top=0;left=0;bottom=0;right=0;" vertex="1" parent="qJWYRdmU4QDl0jJ4TU0a-65">
          <mxGeometry width="30" height="30" as="geometry">
            <mxRectangle width="30" height="30" as="alternateBounds" />
          </mxGeometry>
        </mxCell>
        <mxCell id="qJWYRdmU4QDl0jJ4TU0a-67" value="givenName:string" style="shape=partialRectangle;overflow=hidden;connectable=0;fillColor=none;top=0;left=0;bottom=0;right=0;align=left;spacingLeft=6;" vertex="1" parent="qJWYRdmU4QDl0jJ4TU0a-65">
          <mxGeometry x="30" width="220" height="30" as="geometry">
            <mxRectangle width="220" height="30" as="alternateBounds" />
          </mxGeometry>
        </mxCell>
        <mxCell id="qJWYRdmU4QDl0jJ4TU0a-68" value="" style="shape=partialRectangle;collapsible=0;dropTarget=0;pointerEvents=0;fillColor=none;points=[[0,0.5],[1,0.5]];portConstraint=eastwest;top=0;left=0;right=0;bottom=0;" vertex="1" parent="qJWYRdmU4QDl0jJ4TU0a-52">
          <mxGeometry y="180" width="250" height="30" as="geometry" />
        </mxCell>
        <mxCell id="qJWYRdmU4QDl0jJ4TU0a-69" value="" style="shape=partialRectangle;overflow=hidden;connectable=0;fillColor=none;top=0;left=0;bottom=0;right=0;" vertex="1" parent="qJWYRdmU4QDl0jJ4TU0a-68">
          <mxGeometry width="30" height="30" as="geometry">
            <mxRectangle width="30" height="30" as="alternateBounds" />
          </mxGeometry>
        </mxCell>
        <mxCell id="qJWYRdmU4QDl0jJ4TU0a-70" value="familyName : String" style="shape=partialRectangle;overflow=hidden;connectable=0;fillColor=none;top=0;left=0;bottom=0;right=0;align=left;spacingLeft=6;" vertex="1" parent="qJWYRdmU4QDl0jJ4TU0a-68">
          <mxGeometry x="30" width="220" height="30" as="geometry">
            <mxRectangle width="220" height="30" as="alternateBounds" />
          </mxGeometry>
        </mxCell>
        <mxCell id="qJWYRdmU4QDl0jJ4TU0a-71" value="" style="shape=partialRectangle;collapsible=0;dropTarget=0;pointerEvents=0;fillColor=none;points=[[0,0.5],[1,0.5]];portConstraint=eastwest;top=0;left=0;right=0;bottom=0;" vertex="1" parent="qJWYRdmU4QDl0jJ4TU0a-52">
          <mxGeometry y="210" width="250" height="30" as="geometry" />
        </mxCell>
        <mxCell id="qJWYRdmU4QDl0jJ4TU0a-72" value="" style="shape=partialRectangle;overflow=hidden;connectable=0;fillColor=none;top=0;left=0;bottom=0;right=0;" vertex="1" parent="qJWYRdmU4QDl0jJ4TU0a-71">
          <mxGeometry width="30" height="30" as="geometry">
            <mxRectangle width="30" height="30" as="alternateBounds" />
          </mxGeometry>
        </mxCell>
        <mxCell id="qJWYRdmU4QDl0jJ4TU0a-73" value="role : String" style="shape=partialRectangle;overflow=hidden;connectable=0;fillColor=none;top=0;left=0;bottom=0;right=0;align=left;spacingLeft=6;" vertex="1" parent="qJWYRdmU4QDl0jJ4TU0a-71">
          <mxGeometry x="30" width="220" height="30" as="geometry">
            <mxRectangle width="220" height="30" as="alternateBounds" />
          </mxGeometry>
        </mxCell>
        <mxCell id="qJWYRdmU4QDl0jJ4TU0a-74" value="" style="shape=partialRectangle;collapsible=0;dropTarget=0;pointerEvents=0;points=[[0,0.5],[1,0.5]];portConstraint=eastwest;top=0;left=0;right=0;bottom=0;labelBorderColor=default;verticalAlign=top;labelBackgroundColor=none;fillColor=none;perimeterSpacing=999;" vertex="1" parent="qJWYRdmU4QDl0jJ4TU0a-52">
          <mxGeometry y="240" width="250" height="30" as="geometry" />
        </mxCell>
        <mxCell id="qJWYRdmU4QDl0jJ4TU0a-75" value="FK:" style="shape=partialRectangle;overflow=hidden;connectable=0;fillColor=none;top=0;left=0;bottom=0;right=0;strokeColor=default;shadow=0;" vertex="1" parent="qJWYRdmU4QDl0jJ4TU0a-74">
          <mxGeometry width="30" height="30" as="geometry">
            <mxRectangle width="30" height="30" as="alternateBounds" />
          </mxGeometry>
        </mxCell>
        <mxCell id="qJWYRdmU4QDl0jJ4TU0a-76" value="createdBugsId : ObjectId" style="shape=partialRectangle;overflow=hidden;connectable=0;fillColor=none;top=0;left=0;bottom=0;right=0;align=left;spacingLeft=6;perimeterSpacing=0;strokeColor=default;shadow=0;" vertex="1" parent="qJWYRdmU4QDl0jJ4TU0a-74">
          <mxGeometry x="30" width="220" height="30" as="geometry">
            <mxRectangle width="220" height="30" as="alternateBounds" />
          </mxGeometry>
        </mxCell>
        <mxCell id="qJWYRdmU4QDl0jJ4TU0a-77" value="" style="shape=partialRectangle;collapsible=0;dropTarget=0;pointerEvents=0;fillColor=none;points=[[0,0.5],[1,0.5]];portConstraint=eastwest;top=0;left=0;right=0;bottom=0;" vertex="1" parent="qJWYRdmU4QDl0jJ4TU0a-52">
          <mxGeometry y="270" width="250" height="30" as="geometry" />
        </mxCell>
        <mxCell id="qJWYRdmU4QDl0jJ4TU0a-78" value="FK:" style="shape=partialRectangle;overflow=hidden;connectable=0;fillColor=none;top=0;left=0;bottom=0;right=0;" vertex="1" parent="qJWYRdmU4QDl0jJ4TU0a-77">
          <mxGeometry width="30" height="30" as="geometry">
            <mxRectangle width="30" height="30" as="alternateBounds" />
          </mxGeometry>
        </mxCell>
        <mxCell id="qJWYRdmU4QDl0jJ4TU0a-79" value="assignedBugsId : ObjectId()" style="shape=partialRectangle;overflow=hidden;connectable=0;fillColor=none;top=0;left=0;bottom=0;right=0;align=left;spacingLeft=6;" vertex="1" parent="qJWYRdmU4QDl0jJ4TU0a-77">
          <mxGeometry x="30" width="220" height="30" as="geometry">
            <mxRectangle width="220" height="30" as="alternateBounds" />
          </mxGeometry>
        </mxCell>
        <mxCell id="qJWYRdmU4QDl0jJ4TU0a-80" style="edgeStyle=orthogonalEdgeStyle;rounded=0;orthogonalLoop=1;jettySize=auto;html=1;entryX=0;entryY=0.5;entryDx=0;entryDy=0;" edge="1" parent="1" source="qJWYRdmU4QDl0jJ4TU0a-81" target="qJWYRdmU4QDl0jJ4TU0a-46">
          <mxGeometry relative="1" as="geometry">
            <mxPoint x="300" y="55" as="targetPoint" />
            <Array as="points">
              <mxPoint x="300" y="265" />
              <mxPoint x="300" y="55" />
            </Array>
          </mxGeometry>
        </mxCell>
        <mxCell id="qJWYRdmU4QDl0jJ4TU0a-81" value="" style="whiteSpace=wrap;html=1;borderBottom=none;fillColor=none;rounded=0;" vertex="1" parent="1">
          <mxGeometry x="30" y="250" width="250" height="30" as="geometry" />
        </mxCell>
        <mxCell id="qJWYRdmU4QDl0jJ4TU0a-82" value="" style="whiteSpace=wrap;html=1;borderBottom=none;fillColor=none;rounded=0;" vertex="1" parent="1">
          <mxGeometry x="30" y="280" width="250" height="30" as="geometry" />
        </mxCell>
        <mxCell id="qJWYRdmU4QDl0jJ4TU0a-83" value="" style="endArrow=none;html=1;rounded=0;" edge="1" parent="1">
          <mxGeometry width="50" height="50" relative="1" as="geometry">
            <mxPoint x="280" y="300" as="sourcePoint" />
            <mxPoint x="300" y="260" as="targetPoint" />
            <Array as="points">
              <mxPoint x="300" y="300" />
            </Array>
          </mxGeometry>
        </mxCell>
        <mxCell id="qJWYRdmU4QDl0jJ4TU0a-92" value="" style="group" vertex="1" connectable="0" parent="1">
          <mxGeometry x="320" y="10" width="310" height="530" as="geometry" />
        </mxCell>
        <mxCell id="qJWYRdmU4QDl0jJ4TU0a-45" value="bugs" style="shape=table;startSize=30;container=1;collapsible=1;childLayout=tableLayout;fixedRows=1;rowLines=0;fontStyle=1;align=center;resizeLast=1;" vertex="1" parent="qJWYRdmU4QDl0jJ4TU0a-92">
          <mxGeometry width="310" height="510" as="geometry" />
        </mxCell>
        <mxCell id="qJWYRdmU4QDl0jJ4TU0a-46" value="" style="shape=partialRectangle;collapsible=0;dropTarget=0;pointerEvents=0;fillColor=none;points=[[0,0.5],[1,0.5]];portConstraint=eastwest;top=0;left=0;right=0;bottom=1;" vertex="1" parent="qJWYRdmU4QDl0jJ4TU0a-45">
          <mxGeometry y="30" width="310" height="30" as="geometry" />
        </mxCell>
        <mxCell id="qJWYRdmU4QDl0jJ4TU0a-47" value="PK" style="shape=partialRectangle;overflow=hidden;connectable=0;fillColor=none;top=0;left=0;bottom=0;right=0;fontStyle=1;" vertex="1" parent="qJWYRdmU4QDl0jJ4TU0a-46">
          <mxGeometry width="30" height="30" as="geometry">
            <mxRectangle width="30" height="30" as="alternateBounds" />
          </mxGeometry>
        </mxCell>
        <mxCell id="qJWYRdmU4QDl0jJ4TU0a-48" value="_id: ObjectiId()" style="shape=partialRectangle;overflow=hidden;connectable=0;fillColor=none;top=0;left=0;bottom=0;right=0;align=left;spacingLeft=6;fontStyle=5;" vertex="1" parent="qJWYRdmU4QDl0jJ4TU0a-46">
          <mxGeometry x="30" width="280" height="30" as="geometry">
            <mxRectangle width="280" height="30" as="alternateBounds" />
          </mxGeometry>
        </mxCell>
        <mxCell id="qJWYRdmU4QDl0jJ4TU0a-49" value="" style="shape=partialRectangle;collapsible=0;dropTarget=0;pointerEvents=0;fillColor=none;points=[[0,0.5],[1,0.5]];portConstraint=eastwest;top=0;left=0;right=0;bottom=0;align=left;" vertex="1" parent="qJWYRdmU4QDl0jJ4TU0a-45">
          <mxGeometry y="60" width="310" height="370" as="geometry" />
        </mxCell>
        <mxCell id="qJWYRdmU4QDl0jJ4TU0a-50" value="" style="shape=partialRectangle;overflow=hidden;connectable=0;fillColor=none;top=0;left=0;bottom=0;right=0;" vertex="1" parent="qJWYRdmU4QDl0jJ4TU0a-49">
          <mxGeometry width="30" height="370" as="geometry">
            <mxRectangle width="30" height="370" as="alternateBounds" />
          </mxGeometry>
        </mxCell>
        <mxCell id="qJWYRdmU4QDl0jJ4TU0a-51" value="bugId (ObjectId, PK)&lt;br&gt;&lt;br&gt;title (String)&lt;br&gt;&lt;br&gt;description (String)&lt;br&gt;&lt;br&gt;stepsToReproduce (String)&lt;br&gt;&lt;br&gt;authorOfBugId (ObjectId, FK → User.userId)&lt;br&gt;&lt;br&gt;classificationOfBug (String)&lt;br&gt;&lt;br&gt;dateTimeOfCreation (DateTime)&lt;br&gt;&lt;br&gt;&lt;div&gt;status (String)&lt;/div&gt;&lt;div&gt;&lt;br&gt;&lt;/div&gt;&lt;div&gt;workHoursLog (Integer)&lt;/div&gt;&lt;div&gt;&lt;br&gt;&lt;/div&gt;&lt;div&gt;&lt;br&gt;&lt;/div&gt;" style="shape=partialRectangle;overflow=hidden;connectable=0;fillColor=none;top=0;left=0;bottom=0;right=0;align=left;spacingLeft=6;verticalAlign=top;textDirection=ltr;html=1;" vertex="1" parent="qJWYRdmU4QDl0jJ4TU0a-49">
          <mxGeometry x="30" width="280" height="370" as="geometry">
            <mxRectangle width="280" height="370" as="alternateBounds" />
          </mxGeometry>
        </mxCell>
        <mxCell id="qJWYRdmU4QDl0jJ4TU0a-84" value="testCase" style="swimlane;fontStyle=0;childLayout=stackLayout;horizontal=1;startSize=26;fillColor=none;horizontalStack=0;resizeParent=1;resizeParentMax=0;resizeLast=0;collapsible=1;marginBottom=0;html=1;" vertex="1" parent="qJWYRdmU4QDl0jJ4TU0a-92">
          <mxGeometry x="30" y="390" width="280" height="120" as="geometry" />
        </mxCell>
        <mxCell id="qJWYRdmU4QDl0jJ4TU0a-85" value="description (String)&lt;br&gt;preconditions (String)&lt;br&gt;steps (String)&lt;br&gt;expectedResult (String)&lt;br&gt;actualResult (String)&lt;div&gt;&lt;br&gt;&lt;/div&gt;" style="text;strokeColor=none;fillColor=none;align=left;verticalAlign=top;spacingLeft=4;spacingRight=4;overflow=hidden;rotatable=0;points=[[0,0.5],[1,0.5]];portConstraint=eastwest;whiteSpace=wrap;html=1;" vertex="1" parent="qJWYRdmU4QDl0jJ4TU0a-84">
          <mxGeometry y="26" width="280" height="94" as="geometry" />
        </mxCell>
        <mxCell id="qJWYRdmU4QDl0jJ4TU0a-86" value="versionStatus" style="swimlane;fontStyle=0;childLayout=stackLayout;horizontal=1;startSize=26;fillColor=none;horizontalStack=0;resizeParent=1;resizeParentMax=0;resizeLast=0;collapsible=1;marginBottom=0;html=1;" vertex="1" parent="qJWYRdmU4QDl0jJ4TU0a-92">
          <mxGeometry x="30" y="320" width="280" height="70" as="geometry" />
        </mxCell>
        <mxCell id="qJWYRdmU4QDl0jJ4TU0a-87" value="status (String)&lt;br&gt;version (String)&lt;div&gt;&lt;br&gt;&lt;/div&gt;" style="text;strokeColor=none;fillColor=none;align=left;verticalAlign=top;spacingLeft=4;spacingRight=4;overflow=hidden;rotatable=0;points=[[0,0.5],[1,0.5]];portConstraint=eastwest;whiteSpace=wrap;html=1;" vertex="1" parent="qJWYRdmU4QDl0jJ4TU0a-86">
          <mxGeometry y="26" width="280" height="44" as="geometry" />
        </mxCell>
        <mxCell id="qJWYRdmU4QDl0jJ4TU0a-90" style="edgeStyle=orthogonalEdgeStyle;rounded=0;orthogonalLoop=1;jettySize=auto;html=1;endArrow=none;endFill=0;" edge="1" parent="qJWYRdmU4QDl0jJ4TU0a-92" source="qJWYRdmU4QDl0jJ4TU0a-85" target="qJWYRdmU4QDl0jJ4TU0a-49">
          <mxGeometry relative="1" as="geometry">
            <Array as="points">
              <mxPoint x="300" y="130" />
              <mxPoint x="300" y="130" />
            </Array>
          </mxGeometry>
        </mxCell>
      </root>
    </mxGraphModel>
  </diagram>
</mxfile>
